<svg xmlns="http://www.w3.org/2000/svg" width="125" height="16" viewBox="0 0 125 16" fill="none">
    <path
        d="M69.1427 5.927L64.8912 9.44897L66.1419 15.173L62.011 11.715L57.614 14.989L59.3128 9.32898L55.3467 5.62903L60.5271 5.58899L62.4738 0.0280762L63.977 5.66406L69.1427 5.927Z"
        fill="#FFC600" />
    <path
        d="M41.6917 5.927L37.4403 9.44897L38.6911 15.173L34.5601 11.715L30.1631 14.989L31.8618 9.32898L27.8958 5.62903L33.0762 5.58899L35.0229 0.0280762L36.5261 5.66406L41.6917 5.927Z"
        fill="#FFC600" />
    <path
        d="M14.2428 5.927L9.9913 9.44897L11.242 15.173L7.1111 11.715L2.71407 14.989L4.41286 9.32898L0.446777 5.62903L5.62724 5.58899L7.5739 0.0280762L9.07709 5.66406L14.2428 5.927Z"
        fill="#FFC600" />
    <path
        d="M96.5921 5.927L92.3407 9.44897L93.5914 15.173L89.4605 11.715L85.0635 14.989L86.7623 9.32898L82.7961 5.62903L87.9766 5.58899L89.9233 0.0280762L91.4265 5.66406L96.5921 5.927Z"
        fill="#FFC600" />
    <path
        d="M124.043 5.927L119.792 9.44897L121.043 15.173L116.912 11.715L112.515 14.989L114.213 9.32898L110.247 5.62903L115.428 5.58899L117.374 0.0280762L118.878 5.66406L124.043 5.927Z"
        fill="#C1C8CE" />
</svg>